<svg width="48" height="48" viewBox="0 0 48 48" fill="none" xmlns="http://www.w3.org/2000/svg">
<g clip-path="url(#clip0_526_21)">
<path d="M44.4859 6H13.0141C11.35 6 10 7.35 10 9.01406V40.4859C10 42.15 11.35 43.5 13.0141 43.5H44.4859C46.15 43.5 47.5 42.15 47.5 40.4859V9.01406C47.5 7.35 46.15 6 44.4859 6ZM44.4859 40.5C23.4953 40.4953 13 40.4906 13 40.4859C13.0047 19.4953 13.0094 9 13.0141 9C34.0047 9.00469 44.5 9.00938 44.5 9.01406C44.4953 30.0047 44.4906 40.5 44.4859 40.5ZM15.5594 20.0578H21.1234V37.9547H15.5594V20.0578ZM18.3438 17.6109C20.1203 17.6109 21.5687 16.1672 21.5687 14.3859C21.5687 13.9624 21.4853 13.5431 21.3233 13.1518C21.1612 12.7605 20.9236 12.405 20.6242 12.1055C20.3247 11.806 19.9692 11.5685 19.5779 11.4064C19.1866 11.2444 18.7673 11.1609 18.3438 11.1609C17.9202 11.1609 17.5009 11.2444 17.1096 11.4064C16.7183 11.5685 16.3628 11.806 16.0633 12.1055C15.7639 12.405 15.5263 12.7605 15.3642 13.1518C15.2022 13.5431 15.1187 13.9624 15.1187 14.3859C15.1141 16.1672 16.5578 17.6109 18.3438 17.6109ZM30.1703 29.1C30.1703 26.7656 30.6156 24.5062 33.5078 24.5062C36.3578 24.5062 36.4 27.1734 36.4 29.25V37.9547H41.9594V28.1391C41.9594 23.3203 40.9188 19.6125 35.2891 19.6125C32.5844 19.6125 30.7703 21.0984 30.025 22.5047H29.95V20.0578H24.6109V37.9547H30.1703V29.1Z" fill="#1DC8E2"/>
</g>
<defs>
<clipPath id="clip0_526_21">
<rect width="48" height="48" fill="white"/>
</clipPath>
</defs>
</svg>
