<svg width="433" height="361" viewBox="0 0 433 361" fill="none" xmlns="http://www.w3.org/2000/svg">
<g clip-path="url(#clip0_9:42)">
<path d="M50.731 271.556C50.3604 271.574 49.9935 271.472 49.68 271.263C49.3666 271.054 49.1217 270.749 48.9786 270.389C48.8355 270.029 48.801 269.631 48.8799 269.25C48.9588 268.868 49.1472 268.521 49.4197 268.256C49.4653 268.066 49.498 267.929 49.5436 267.738C49.5273 267.696 49.5109 267.655 49.4944 267.613C49.121 266.685 48.4954 265.894 47.6961 265.339C46.8968 264.784 45.9594 264.49 45.0018 264.494C44.0441 264.497 43.1089 264.799 42.3135 265.36C41.5182 265.921 40.8982 266.717 40.5314 267.648C39.0654 271.363 37.199 275.085 36.7395 279.013C36.5371 280.75 36.6224 282.51 36.9918 284.216C33.5487 276.312 31.7608 267.722 31.7493 259.028C31.7486 256.846 31.8638 254.666 32.0943 252.498C32.2849 250.721 32.5493 248.956 32.8874 247.204C34.7329 237.697 38.6951 228.786 44.4487 221.203C47.2334 219.604 49.4855 217.146 50.9014 214.159C51.4143 213.085 51.7768 211.939 51.9777 210.755C51.6636 210.799 51.3443 210.826 51.0301 210.848C50.9323 210.853 50.8293 210.858 50.7314 210.864L50.6945 210.866C50.3493 210.882 50.0069 210.793 49.7087 210.609C49.4104 210.425 49.1689 210.155 49.0134 209.83C48.8578 209.506 48.7948 209.14 48.8318 208.779C48.8689 208.417 49.0044 208.075 49.2222 207.792C49.3579 207.617 49.4936 207.441 49.6293 207.266C49.8354 206.995 50.0465 206.729 50.2525 206.458C50.2762 206.432 50.2986 206.405 50.3194 206.377C50.5564 206.068 50.7932 205.765 51.0301 205.456C50.5977 204.749 50.0161 204.158 49.3307 203.727C46.9566 202.264 43.6813 203.277 41.9664 205.537C40.2464 207.797 39.922 210.967 40.5193 213.79C41.1068 216.192 42.0785 218.472 43.393 220.531C43.2642 220.705 43.1303 220.873 43.0016 221.046C40.6481 224.231 38.5968 227.65 36.8773 231.256C37.2955 227.216 36.7964 223.13 35.421 219.334C34.0272 215.795 31.4146 212.815 29.1139 209.757C26.3503 206.082 20.6835 207.686 20.1966 212.343C20.1919 212.389 20.1873 212.434 20.1828 212.479C20.5245 212.682 20.859 212.897 21.1863 213.125C21.5975 213.414 21.9161 213.827 22.1004 214.31C22.2847 214.793 22.326 215.323 22.2191 215.831C22.1121 216.339 21.8618 216.801 21.501 217.157C21.1401 217.512 20.6855 217.745 20.1968 217.825L20.1468 217.833C20.2685 219.129 20.4837 220.413 20.7905 221.675C21.6794 225.197 23.2503 228.488 25.4046 231.341C27.5589 234.195 30.2501 236.549 33.3096 238.257C33.5105 238.365 33.7062 238.474 33.907 238.577C32.1794 243.729 31.0957 249.095 30.6833 254.541C30.4497 257.754 30.4635 260.982 30.7245 264.192L30.709 264.079C30.0498 260.508 28.2399 257.287 25.5849 254.958C21.6417 251.55 16.0706 250.295 11.8165 247.555C11.3644 247.249 10.8388 247.086 10.3015 247.085C9.76423 247.084 9.2378 247.244 8.78428 247.547C8.33077 247.85 7.96909 248.283 7.7419 248.796C7.51472 249.308 7.4315 249.878 7.50207 250.438C7.50777 250.478 7.51357 250.518 7.51947 250.558C8.15362 250.83 8.77106 251.143 9.36822 251.496C9.70995 251.698 10.0445 251.914 10.3718 252.141C10.7829 252.431 11.1015 252.844 11.2858 253.326C11.4701 253.809 11.5115 254.34 11.4045 254.848C11.2975 255.356 11.0472 255.818 10.6864 256.174C10.3255 256.529 9.87097 256.762 9.38224 256.841L9.33217 256.849C9.29612 256.855 9.26523 256.86 9.22923 256.866C10.3128 259.588 11.8335 262.094 13.725 264.274C16.0615 266.912 18.8855 269.02 22.0239 270.469C25.1622 271.918 28.5488 272.677 31.9759 272.7H31.981C32.9113 276.954 34.2592 281.095 36.003 285.055H50.3709C50.4225 284.887 50.4688 284.714 50.5152 284.546C49.1852 284.634 47.8501 284.55 46.5395 284.297C47.6055 282.92 48.6715 281.533 49.7375 280.157C49.7613 280.131 49.7836 280.104 49.8045 280.075C50.3452 279.371 50.8911 278.672 51.4318 277.967L51.4321 277.967C51.4609 275.807 51.2254 273.653 50.7314 271.557L50.731 271.556Z" fill="#F2F2F2"/>
<path d="M220.173 285.26C220.173 285.342 220.158 285.424 220.128 285.5C220.098 285.576 220.054 285.645 219.999 285.704C219.944 285.762 219.878 285.808 219.806 285.84C219.733 285.871 219.656 285.887 219.577 285.887H0.595916C0.43787 285.887 0.286302 285.821 0.174546 285.703C0.0627906 285.586 0 285.426 0 285.26C0 285.093 0.0627906 284.934 0.174546 284.816C0.286302 284.699 0.43787 284.633 0.595916 284.633H219.577C219.656 284.632 219.733 284.649 219.806 284.68C219.878 284.711 219.944 284.758 219.999 284.816C220.054 284.874 220.098 284.943 220.128 285.02C220.158 285.096 220.173 285.177 220.173 285.26Z" fill="#CCCCCC"/>
<path d="M114.667 204.71C113.843 204.503 112.985 204.488 112.154 204.667C111.323 204.846 110.54 205.214 109.859 205.746C109.178 206.278 108.616 206.961 108.214 207.746C107.811 208.531 107.576 209.4 107.527 210.29L95.0081 214.875L95.8002 223.56L113.392 216.824C114.82 216.812 116.194 216.25 117.254 215.243C118.314 214.237 118.986 212.856 119.143 211.363C119.3 209.87 118.932 208.368 118.107 207.142C117.282 205.915 116.058 205.05 114.667 204.71V204.71Z" fill="#FFB6B6"/>
<path d="M94.2649 229.953C89.2872 233.604 80.5178 235.471 68.5827 235.386C67.9219 235.387 67.268 235.245 66.6623 234.967C66.0566 234.689 65.5124 234.282 65.064 233.771C61.8705 230.272 61.9952 222.284 62.0152 221.512L58.5148 207.631C58.4397 207.419 56.5023 201.723 58.4734 197.746C58.8928 196.915 59.4781 196.19 60.1891 195.619C60.9002 195.049 61.7201 194.648 62.5926 194.442C69.9952 192.375 76.9539 213.226 77.8382 215.982L88.2266 214.12L95.4008 213.81L102.7 209.57L106.809 219.919L96.6395 227.74C95.9378 228.578 95.1402 229.321 94.2649 229.953Z" fill="#2F2E41"/>
<path d="M114.31 344.73L121.962 345.106L126.983 314.226L115.689 313.671L114.31 344.73Z" fill="#FFB6B6"/>
<path d="M112.588 340.664L124.719 340.499L124.476 345.953L135.605 354.877C136.155 355.318 136.557 355.932 136.751 356.629C136.946 357.327 136.923 358.072 136.687 358.756C136.451 359.439 136.013 360.025 135.438 360.428C134.863 360.831 134.18 361.03 133.49 360.996L119.089 360.288L116.846 354.771L115.637 360.118L110.207 359.851L112.588 340.664Z" fill="#2F2E41"/>
<path d="M194.204 278.427L196.992 270.919L170.796 256.031L157.563 264.783L194.204 278.427Z" fill="#FFB6B6"/>
<path d="M189.993 278.842L193.727 266.696L198.559 268.683L210.156 260.444C210.728 260.037 211.41 259.833 212.1 259.863C212.791 259.892 213.454 260.153 213.994 260.607C214.534 261.061 214.921 261.685 215.1 262.388C215.279 263.09 215.24 263.834 214.988 264.512L209.741 278.642L204.057 279.112L208.484 282.029L206.505 287.356L189.993 278.842Z" fill="#2F2E41"/>
<path d="M43.7151 256.081C43.7151 256.081 46.8932 277.43 61.9163 279.011C76.9393 280.592 90.7874 273.47 90.7874 273.47L132.852 259.838C132.852 259.838 177.594 273.215 185.105 275.322C185.105 275.322 190.287 262.948 190.113 262.149C188.515 254.794 186.434 259.769 186.434 259.769L138.861 237.637C138.861 237.637 131.35 235.53 118.33 241.326C105.31 247.123 70.4293 261.095 70.4293 261.095L43.7151 256.081Z" fill="#2F2E41"/>
<path d="M43.8885 254.772C43.8885 254.772 41.3831 280.348 56.0174 284.255C69.9285 287.969 89.1173 284.159 89.1173 284.159L111.993 281.646C111.993 281.646 112.995 312.575 112.995 327.857C117.642 328.521 122.326 328.874 127.016 328.911C128.018 328.911 128.084 328.359 128.084 328.359L130.023 274.903C130.16 272.579 129.832 270.251 129.061 268.068C128.291 265.885 127.095 263.896 125.55 262.229C124.005 260.562 122.145 259.254 120.091 258.389C118.036 257.523 115.832 257.12 113.621 257.205C112.541 257.249 111.408 257.329 110.223 257.447C96.1499 258.867 78.679 255.848 78.679 255.848L43.8885 254.772Z" fill="#2F2E41"/>
<path d="M84.48 217.668C84.48 217.668 90.4211 255.474 86.4061 258.491C82.3912 261.509 76.8852 261.521 76.8852 261.521L75.6049 240.648L84.48 217.668Z" fill="#2F2E41"/>
<path d="M74.5713 171.238L82.5148 179.181C86.207 182.873 88.6543 187.731 89.4857 193.019C90.3171 198.306 89.4871 203.735 87.1218 208.481L83.3246 216.101L74.5713 171.238Z" fill="#2F2E41"/>
<path d="M72.7949 172.574L83.5583 185.475C85.9206 188.306 87.3845 191.842 87.7459 195.591C87.91 197.293 87.844 199.011 87.5499 200.693L83.4936 223.897L80.4447 257.406C80.4447 257.406 56.9069 264.911 54.4976 253.323C52.0884 241.734 72.7949 172.574 72.7949 172.574Z" fill="#49FF92"/>
<path d="M62.6918 260.556C47.2189 257.842 43.4286 257.304 43.1926 257.209L42.9561 257.114L44.5069 247.321L51.0558 230.387C51.4811 224.848 54.2395 217.343 52.6615 211.315C48.0741 193.79 55.5272 169.026 58.9356 167.129L68.3847 160.611L71.7016 163.811L77.4526 172.282C82.1844 194.462 85.4525 215.135 85.2936 216.399L82.3731 238.112L78.9318 246.442C68.4919 251.742 75.5121 262.804 62.6918 260.556Z" fill="#2F2E41"/>
<path d="M90.7049 244.626L114.999 237.786L117.138 237.252L118.664 236.871L120.441 236.429L120.455 236.426C120.714 236.364 120.985 236.411 121.21 236.558L130.231 247.939C130.312 247.991 130.384 248.059 130.443 248.139C130.467 248.16 130.489 248.184 130.507 248.21C130.607 248.353 130.672 248.52 130.696 248.696C130.72 248.872 130.702 249.051 130.645 249.219C130.588 249.386 130.492 249.535 130.367 249.655C130.242 249.774 130.091 249.859 129.927 249.902L93.6846 258.678C93.4968 258.723 93.3008 258.711 93.1193 258.643C92.9377 258.576 92.778 258.456 92.6585 258.297L92.2907 257.795L90.2851 247.633L90.1425 246.313C90.0515 246.191 89.9872 246.049 89.9544 245.898C89.8961 245.625 89.9421 245.338 90.0825 245.1C90.2228 244.863 90.4463 244.692 90.7049 244.626Z" fill="#E6E6E6"/>
<path opacity="0.17" d="M92.2905 257.794L92.6605 258.298C92.7797 258.456 92.939 258.576 93.12 258.643C93.3011 258.711 93.4966 258.723 93.684 258.679L129.927 249.902C130.091 249.859 130.242 249.774 130.368 249.655C130.493 249.536 130.588 249.387 130.646 249.22C130.703 249.052 130.72 248.873 130.696 248.697C130.672 248.522 130.607 248.355 130.507 248.212C130.489 248.185 130.468 248.161 130.443 248.141L92.2905 257.794Z" fill="black"/>
<path d="M120.26 236.355L119.605 187.736C119.577 187.443 119.661 187.151 119.838 186.924L124.483 176.753L124.965 176.136C125.144 175.911 125.4 175.768 125.679 175.739L126.689 175.64C126.968 175.611 127.246 175.7 127.462 175.887C127.678 176.073 127.815 176.343 127.843 176.636L128.753 228.078L128.754 228.082L129.205 233.035L129.739 238.917L129.741 238.924L130.575 248.076C130.591 248.232 130.574 248.39 130.526 248.539C130.477 248.688 130.399 248.824 130.296 248.938C130.195 249.054 130.073 249.145 129.936 249.207C129.799 249.269 129.651 249.299 129.502 249.296L128.845 249.282C128.593 249.275 128.351 249.175 128.162 248.999L127.794 248.651L127.623 248.487L120.609 237.077C120.41 236.892 120.285 236.633 120.26 236.355Z" fill="#E6E6E6"/>
<path opacity="0.17" d="M124.484 176.753L127.623 248.489L127.794 248.65L128.161 248.997C128.35 249.174 128.592 249.274 128.844 249.281L129.503 249.295C129.652 249.298 129.8 249.267 129.937 249.205C130.074 249.144 130.197 249.053 130.298 248.937C130.399 248.822 130.476 248.686 130.524 248.538C130.572 248.389 130.589 248.232 130.575 248.076L127.841 176.637C127.814 176.344 127.678 176.074 127.462 175.887C127.246 175.699 126.969 175.61 126.69 175.638L125.677 175.74C125.54 175.753 125.406 175.795 125.284 175.863C125.162 175.932 125.054 176.025 124.967 176.137L124.484 176.753Z" fill="black"/>
<path d="M124.748 179.652L120.501 190.683L121.026 223.684L125.624 230.682L124.748 179.652Z" fill="#49FF92"/>
<path d="M93.5047 244.335C93.2723 244.404 93.0757 244.568 92.9582 244.791C92.8406 245.013 92.8117 245.275 92.8778 245.52L94.7488 253.725L96.502 253.2L94.6309 244.994C94.5647 244.75 94.4088 244.543 94.1976 244.419C93.9864 244.296 93.7372 244.265 93.5047 244.335Z" fill="#2F2E41"/>
<path d="M97.0111 243.284C96.7787 243.354 96.5821 243.518 96.4645 243.74C96.3469 243.962 96.318 244.225 96.3841 244.469L96.7835 245.945L98.5366 245.42L98.1373 243.944C98.071 243.699 97.9151 243.492 97.704 243.369C97.4928 243.245 97.2436 243.215 97.0111 243.284Z" fill="#2F2E41"/>
<path d="M100.517 242.234C100.285 242.303 100.088 242.467 99.9708 242.69C99.8532 242.912 99.8243 243.174 99.8904 243.419L100.29 244.894L102.043 244.369L101.644 242.893C101.577 242.649 101.421 242.442 101.21 242.318C100.999 242.194 100.75 242.164 100.517 242.234Z" fill="#2F2E41"/>
<path d="M104.024 241.183C103.791 241.253 103.595 241.417 103.477 241.639C103.359 241.861 103.331 242.123 103.397 242.368L103.796 243.844L105.549 243.319L105.15 241.843C105.084 241.598 104.928 241.391 104.717 241.268C104.505 241.144 104.256 241.113 104.024 241.183Z" fill="#2F2E41"/>
<path d="M107.53 240.132C107.298 240.202 107.101 240.366 106.983 240.588C106.866 240.811 106.837 241.073 106.903 241.317L107.302 242.793L109.056 242.268L108.656 240.792C108.59 240.548 108.434 240.341 108.223 240.217C108.012 240.093 107.762 240.063 107.53 240.132Z" fill="#2F2E41"/>
<path d="M111.036 239.082C110.804 239.152 110.607 239.316 110.49 239.538C110.372 239.76 110.343 240.022 110.409 240.267L110.809 241.743L112.562 241.217L112.162 239.742C112.096 239.497 111.94 239.29 111.729 239.166C111.518 239.043 111.269 239.012 111.036 239.082Z" fill="#2F2E41"/>
<path d="M114.543 238.031C114.31 238.101 114.114 238.265 113.996 238.487C113.878 238.709 113.849 238.972 113.916 239.216L114.315 240.692L116.068 240.167L115.669 238.691C115.602 238.446 115.447 238.24 115.235 238.116C115.024 237.992 114.775 237.962 114.543 238.031Z" fill="#2F2E41"/>
<path d="M118.049 236.981C117.816 237.05 117.62 237.214 117.502 237.437C117.385 237.659 117.356 237.921 117.422 238.166L117.821 239.642L119.574 239.116L119.175 237.64C119.109 237.396 118.953 237.189 118.742 237.065C118.531 236.942 118.281 236.911 118.049 236.981Z" fill="#2F2E41"/>
<path d="M97.7469 246.649C97.5145 246.719 97.3179 246.883 97.2003 247.105C97.0828 247.327 97.0539 247.589 97.12 247.834L97.5193 249.31L99.2725 248.784L98.8731 247.309C98.8069 247.064 98.651 246.857 98.4398 246.733C98.2286 246.61 97.9794 246.579 97.7469 246.649Z" fill="#2F2E41"/>
<path d="M101.253 245.598C101.021 245.668 100.824 245.832 100.707 246.054C100.589 246.276 100.56 246.539 100.626 246.783L101.026 248.259L102.779 247.734L102.379 246.258C102.313 246.013 102.157 245.807 101.946 245.683C101.735 245.559 101.486 245.529 101.253 245.598Z" fill="#2F2E41"/>
<path d="M104.76 244.548C104.527 244.617 104.33 244.781 104.213 245.004C104.095 245.226 104.066 245.488 104.133 245.733L104.532 247.209L106.285 246.683L105.886 245.207C105.819 244.963 105.664 244.756 105.452 244.632C105.241 244.509 104.992 244.478 104.76 244.548Z" fill="#2F2E41"/>
<path d="M108.266 243.497C108.033 243.567 107.837 243.731 107.719 243.953C107.602 244.175 107.573 244.437 107.639 244.682L108.038 246.158L109.791 245.633L109.392 244.157C109.326 243.912 109.17 243.705 108.959 243.582C108.748 243.458 108.498 243.428 108.266 243.497Z" fill="#2F2E41"/>
<path d="M111.772 242.447C111.54 242.516 111.343 242.68 111.225 242.902C111.108 243.125 111.079 243.387 111.145 243.632L111.544 245.107L113.298 244.582L112.898 243.106C112.832 242.862 112.676 242.655 112.465 242.531C112.254 242.407 112.005 242.377 111.772 242.447Z" fill="#2F2E41"/>
<path d="M115.278 241.396C115.046 241.466 114.849 241.63 114.732 241.852C114.614 242.074 114.585 242.336 114.651 242.581L115.051 244.057L116.804 243.532L116.405 242.056C116.338 241.811 116.182 241.604 115.971 241.481C115.76 241.357 115.511 241.326 115.278 241.396Z" fill="#2F2E41"/>
<path d="M118.785 240.345C118.552 240.415 118.356 240.579 118.238 240.801C118.121 241.024 118.092 241.286 118.158 241.53L118.557 243.006L120.31 242.481L119.911 241.005C119.845 240.761 119.689 240.554 119.478 240.43C119.266 240.306 119.017 240.276 118.785 240.345Z" fill="#2F2E41"/>
<path d="M98.4828 250.014C98.2504 250.083 98.0537 250.247 97.9362 250.469C97.8186 250.692 97.7897 250.954 97.8558 251.199L98.2552 252.674L100.008 252.149L99.609 250.673C99.5427 250.429 99.3868 250.222 99.1757 250.098C98.9645 249.974 98.7153 249.944 98.4828 250.014Z" fill="#2F2E41"/>
<path d="M101.989 248.963C101.757 249.033 101.56 249.197 101.442 249.419C101.325 249.641 101.296 249.903 101.362 250.148L101.761 251.624L103.515 251.099L103.115 249.623C103.049 249.378 102.893 249.171 102.682 249.047C102.471 248.924 102.222 248.893 101.989 248.963Z" fill="#2F2E41"/>
<path d="M105.495 247.912C105.263 247.982 105.066 248.146 104.949 248.368C104.831 248.591 104.802 248.853 104.868 249.097L105.268 250.573L107.021 250.048L106.622 248.572C106.555 248.328 106.399 248.121 106.188 247.997C105.977 247.873 105.728 247.843 105.495 247.912Z" fill="#2F2E41"/>
<path d="M109.002 246.862C108.769 246.932 108.573 247.096 108.455 247.318C108.338 247.54 108.309 247.802 108.375 248.047L108.774 249.523L110.527 248.997L110.128 247.522C110.062 247.277 109.906 247.07 109.695 246.946C109.483 246.823 109.234 246.792 109.002 246.862Z" fill="#2F2E41"/>
<path d="M112.508 245.811C112.276 245.881 112.079 246.045 111.961 246.267C111.844 246.489 111.815 246.752 111.881 246.996L112.28 248.472L114.034 247.947L113.634 246.471C113.568 246.226 113.412 246.019 113.201 245.896C112.99 245.772 112.74 245.742 112.508 245.811Z" fill="#2F2E41"/>
<path d="M116.014 244.761C115.782 244.83 115.585 244.994 115.468 245.217C115.35 245.439 115.321 245.701 115.387 245.946L115.787 247.422L117.54 246.896L117.14 245.42C117.074 245.176 116.918 244.969 116.707 244.845C116.496 244.721 116.247 244.691 116.014 244.761Z" fill="#2F2E41"/>
<path d="M119.521 243.71C119.288 243.78 119.092 243.944 118.974 244.166C118.856 244.388 118.827 244.65 118.894 244.895L119.293 246.371L121.046 245.846L120.647 244.37C120.58 244.125 120.425 243.918 120.213 243.795C120.002 243.671 119.753 243.64 119.521 243.71Z" fill="#2F2E41"/>
<path d="M109.219 237.343C108.749 236.6 108.13 235.975 107.405 235.512C106.68 235.048 105.868 234.757 105.025 234.66C104.182 234.563 103.329 234.661 102.526 234.948C101.723 235.235 100.99 235.704 100.378 236.322L88.2381 230.721L83.2046 237.654L100.454 245.31C101.508 246.323 102.878 246.894 104.306 246.915C105.734 246.936 107.119 246.405 108.199 245.423C109.28 244.441 109.98 243.076 110.168 241.587C110.356 240.097 110.018 238.587 109.219 237.343Z" fill="#FFB6B6"/>
<path d="M77.9464 241.241C71.9378 240.354 64.3025 235.446 55.6095 226.84C55.124 226.369 54.7368 225.796 54.4725 225.159C54.2082 224.522 54.0725 223.834 54.0741 223.138C53.9954 218.287 59.2506 212.522 59.764 211.97L66.1715 199.29C66.2537 199.081 68.5154 193.519 72.5313 192.014C73.3758 191.706 74.2738 191.593 75.1636 191.684C76.0534 191.775 76.9139 192.068 77.6861 192.542C84.4484 196.325 76.0701 216.59 74.9372 219.242L83.7553 225.314L89.2147 230.222L97.3055 232.339L93.6275 242.866L81.1176 241.319C80.0615 241.431 78.9964 241.405 77.9464 241.241Z" fill="#2F2E41"/>
<path d="M89.7948 145.327C90.8076 136.432 84.9256 128.377 76.6571 127.334C68.3886 126.292 60.8646 132.657 59.8518 141.552C58.8391 150.446 64.721 158.502 72.9895 159.545C81.2581 160.587 88.782 154.222 89.7948 145.327Z" fill="#FFB6B6"/>
<path d="M35.5565 131.404C38.4569 128.602 40.1386 124.611 42.5767 121.321C45.0149 118.032 48.9166 115.304 52.5627 116.601C55.0761 117.495 56.796 120.14 57.5009 122.936C58.2055 125.733 58.0594 128.7 57.9079 131.605C58.5202 125.672 62.8843 120.395 68.2103 119.149C73.5359 117.902 79.412 120.782 82.0812 125.948C83.6382 124.758 85.5561 124.21 87.4713 124.409C89.3864 124.607 91.1657 125.539 92.472 127.026C95.0368 130.089 95.087 135.311 92.5822 138.491C90.0774 141.67 85.3563 142.377 82.2168 140.043L80.8991 141.042C81.2872 143.585 79.661 146.326 77.3778 146.977C75.5264 147.505 73.0475 147.065 72.1646 148.932C71.5476 150.237 72.2452 151.8 73.0441 152.963C73.8429 154.126 74.8099 155.344 74.7552 156.807C74.6728 159.014 72.3515 160.275 70.3473 160.49C65.5145 161.009 60.5539 158.058 58.3391 153.345C58.2964 153.255 58.2492 153.163 58.1974 153.071C56.9088 150.831 56.0677 148.338 55.7254 145.745C55.3832 143.152 55.547 140.512 56.2069 137.988C56.4745 136.997 56.4063 136.226 55.7717 135.904C53.029 134.509 44.7675 135.669 42.1188 137.324C39.4698 138.98 37.232 141.33 34.658 143.123C32.0838 144.917 28.9233 146.152 26.0215 145.209C23.6975 144.454 21.883 142.385 20.7727 140.024C19.6627 137.663 19.1708 135.013 18.7588 132.388C23.6488 136.244 30.9912 135.814 35.5565 131.404Z" fill="#2F2E41"/>
<path d="M432.115 18.1714H204.619C204.383 18.1661 204.157 18.0634 203.992 17.8855C203.826 17.7075 203.734 17.4684 203.734 17.2194C203.734 16.9704 203.826 16.7312 203.992 16.5533C204.157 16.3753 204.383 16.2727 204.619 16.2674H432.115C432.352 16.2727 432.577 16.3753 432.742 16.5533C432.908 16.7312 433.001 16.9704 433.001 17.2194C433.001 17.4684 432.908 17.7075 432.742 17.8855C432.577 18.0634 432.352 18.1661 432.115 18.1714Z" fill="#CACACA"/>
<path d="M220.105 11.4068C223.033 11.4068 225.407 8.85328 225.407 5.70338C225.407 2.55349 223.033 0 220.105 0C217.177 0 214.803 2.55349 214.803 5.70338C214.803 8.85328 217.177 11.4068 220.105 11.4068Z" fill="#3F3D56"/>
<path d="M238.421 11.4068C241.349 11.4068 243.723 8.85328 243.723 5.70338C243.723 2.55349 241.349 0 238.421 0C235.493 0 233.119 2.55349 233.119 5.70338C233.119 8.85328 235.493 11.4068 238.421 11.4068Z" fill="#3F3D56"/>
<path d="M256.736 11.4068C259.664 11.4068 262.038 8.85328 262.038 5.70338C262.038 2.55349 259.664 0 256.736 0C253.808 0 251.434 2.55349 251.434 5.70338C251.434 8.85328 253.808 11.4068 256.736 11.4068Z" fill="#3F3D56"/>
<path d="M421.087 1.41364H408.077C407.819 1.41904 407.574 1.53063 407.393 1.72445C407.212 1.91827 407.111 2.17886 407.111 2.45027C407.111 2.72168 407.212 2.98226 407.393 3.17608C407.574 3.3699 407.819 3.48149 408.077 3.48689H421.087C421.345 3.48149 421.591 3.3699 421.771 3.17608C421.952 2.98226 422.053 2.72168 422.053 2.45027C422.053 2.17886 421.952 1.91827 421.771 1.72445C421.591 1.53063 421.345 1.41904 421.087 1.41364Z" fill="#3F3D56"/>
<path d="M421.087 5.30481H408.077C407.819 5.31021 407.574 5.42181 407.393 5.61562C407.212 5.80944 407.111 6.07003 407.111 6.34144C407.111 6.61285 407.212 6.87343 407.393 7.06725C407.574 7.26107 407.819 7.37266 408.077 7.37806H421.087C421.345 7.37266 421.591 7.26107 421.771 7.06725C421.952 6.87343 422.053 6.61285 422.053 6.34144C422.053 6.07003 421.952 5.80944 421.771 5.61562C421.591 5.42181 421.345 5.31021 421.087 5.30481Z" fill="#3F3D56"/>
<path d="M421.088 9.19088H408.077C407.819 9.19625 407.573 9.30782 407.393 9.50164C407.212 9.69546 407.111 9.95607 407.111 10.2275C407.111 10.4989 407.212 10.7595 407.393 10.9534C407.573 11.1472 407.819 11.2588 408.077 11.2641H421.088C421.345 11.2588 421.591 11.1472 421.772 10.9534C421.952 10.7595 422.053 10.4989 422.053 10.2275C422.053 9.95607 421.952 9.69546 421.772 9.50164C421.591 9.30782 421.345 9.19625 421.088 9.19088Z" fill="#3F3D56"/>
<path d="M33.2762 236.972L33.284 236.961L33.2762 236.983V236.972Z" fill="#2F2E41"/>
<path d="M345.792 55.2686C349.413 55.2686 352.347 52.1805 352.347 48.3712C352.347 44.5619 349.413 41.4738 345.792 41.4738C342.172 41.4738 339.238 44.5619 339.238 48.3712C339.238 52.1805 342.172 55.2686 345.792 55.2686Z" fill="#E6E7E8"/>
<path d="M401.039 63.6445H341.19C340.933 63.6449 340.679 63.5921 340.442 63.4891C340.205 63.386 339.989 63.2348 339.808 63.044C339.626 62.8533 339.482 62.6267 339.384 62.3773C339.285 62.1279 339.235 61.8606 339.235 61.5906C339.235 61.3206 339.285 61.0532 339.384 60.8038C339.482 60.5544 339.626 60.3278 339.808 60.1371C339.989 59.9463 340.205 59.7951 340.442 59.692C340.679 59.589 340.933 59.5362 341.19 59.5367H401.039C401.295 59.5362 401.549 59.589 401.787 59.692C402.024 59.7951 402.239 59.9463 402.421 60.1371C402.602 60.3278 402.746 60.5544 402.845 60.8038C402.943 61.0532 402.994 61.3206 402.994 61.5906C402.994 61.8606 402.943 62.1279 402.845 62.3773C402.746 62.6267 402.602 62.8533 402.421 63.044C402.239 63.2348 402.024 63.386 401.787 63.4891C401.549 63.5921 401.295 63.6449 401.039 63.6445Z" fill="#E6E7E8"/>
<path d="M356.054 71.7605H341.19C340.672 71.7605 340.176 71.5441 339.809 71.1589C339.443 70.7737 339.238 70.2512 339.238 69.7065C339.238 69.1617 339.443 68.6393 339.809 68.2541C340.176 67.8689 340.672 67.6525 341.19 67.6525H356.054C356.572 67.6525 357.069 67.8689 357.435 68.2541C357.801 68.6393 358.006 69.1617 358.006 69.7065C358.006 70.2512 357.801 70.7737 357.435 71.1589C357.069 71.5441 356.572 71.7605 356.054 71.7605Z" fill="#E6E7E8"/>
<path d="M345.792 162.926C349.413 162.926 352.347 159.838 352.347 156.029C352.347 152.22 349.413 149.132 345.792 149.132C342.172 149.132 339.238 152.22 339.238 156.029C339.238 159.838 342.172 162.926 345.792 162.926Z" fill="#E6E7E8"/>
<path d="M401.039 171.302H341.19C340.672 171.302 340.176 171.086 339.81 170.701C339.443 170.315 339.238 169.793 339.238 169.248C339.238 168.703 339.443 168.181 339.81 167.796C340.176 167.411 340.672 167.194 341.19 167.194H401.039C401.556 167.194 402.053 167.411 402.419 167.796C402.785 168.181 402.991 168.703 402.991 169.248C402.991 169.793 402.785 170.315 402.419 170.701C402.053 171.086 401.556 171.302 401.039 171.302Z" fill="#E6E7E8"/>
<path d="M356.054 179.418H341.19C340.672 179.418 340.176 179.202 339.809 178.817C339.443 178.431 339.238 177.909 339.238 177.364C339.238 176.819 339.443 176.297 339.809 175.912C340.176 175.527 340.672 175.31 341.19 175.31H356.054C356.572 175.31 357.069 175.527 357.435 175.912C357.801 176.297 358.006 176.819 358.006 177.364C358.006 177.909 357.801 178.431 357.435 178.817C357.069 179.202 356.572 179.418 356.054 179.418Z" fill="#E6E7E8"/>
<path d="M240.298 146.589C243.918 146.589 246.853 143.501 246.853 139.692C246.853 135.882 243.918 132.794 240.298 132.794C236.678 132.794 233.744 135.882 233.744 139.692C233.744 143.501 236.678 146.589 240.298 146.589Z" fill="#E6E7E8"/>
<path d="M295.545 154.965H235.696C235.178 154.965 234.681 154.749 234.315 154.363C233.949 153.978 233.744 153.456 233.744 152.911C233.744 152.366 233.949 151.844 234.315 151.459C234.681 151.074 235.178 150.857 235.696 150.857H295.545C296.062 150.857 296.559 151.074 296.925 151.459C297.291 151.844 297.496 152.366 297.496 152.911C297.496 153.456 297.291 153.978 296.925 154.363C296.559 154.749 296.062 154.965 295.545 154.965Z" fill="#E6E7E8"/>
<path d="M250.56 163.081H235.696C235.178 163.081 234.681 162.865 234.315 162.479C233.949 162.094 233.744 161.572 233.744 161.027C233.744 160.482 233.949 159.96 234.315 159.575C234.681 159.189 235.178 158.973 235.696 158.973H250.56C251.078 158.973 251.574 159.189 251.94 159.575C252.307 159.96 252.512 160.482 252.512 161.027C252.512 161.572 252.307 162.094 251.94 162.479C251.574 162.865 251.078 163.081 250.56 163.081Z" fill="#E6E7E8"/>
<path d="M345.792 105.039C349.413 105.039 352.347 101.951 352.347 98.1421C352.347 94.3327 349.413 91.2447 345.792 91.2447C342.172 91.2447 339.238 94.3327 339.238 98.1421C339.238 101.951 342.172 105.039 345.792 105.039Z" fill="#E6E7E8"/>
<path d="M401.039 113.415H341.19C340.672 113.415 340.176 113.199 339.81 112.814C339.443 112.429 339.238 111.906 339.238 111.361C339.238 110.817 339.443 110.294 339.81 109.909C340.176 109.524 340.672 109.307 341.19 109.307H401.039C401.556 109.307 402.053 109.524 402.419 109.909C402.785 110.294 402.991 110.817 402.991 111.361C402.991 111.906 402.785 112.429 402.419 112.814C402.053 113.199 401.556 113.415 401.039 113.415Z" fill="#E6E7E8"/>
<path d="M377.153 121.531H341.19C340.672 121.531 340.176 121.315 339.809 120.93C339.443 120.544 339.238 120.022 339.238 119.477C339.238 118.933 339.443 118.41 339.809 118.025C340.176 117.64 340.672 117.423 341.19 117.423H377.153C377.671 117.423 378.167 117.64 378.533 118.025C378.899 118.41 379.105 118.933 379.105 119.477C379.105 120.022 378.899 120.544 378.533 120.93C378.167 121.315 377.671 121.531 377.153 121.531Z" fill="#E6E7E8"/>
<path d="M367.133 129.647H341.19C340.672 129.647 340.176 129.431 339.809 129.046C339.443 128.661 339.238 128.138 339.238 127.593C339.238 127.049 339.443 126.526 339.809 126.141C340.176 125.756 340.672 125.539 341.19 125.539H367.133C367.65 125.539 368.147 125.756 368.513 126.141C368.879 126.526 369.085 127.049 369.085 127.593C369.085 128.138 368.879 128.661 368.513 129.046C368.147 129.431 367.65 129.647 367.133 129.647Z" fill="#E6E7E8"/>
<path d="M286.03 53.3208V125.738C286.03 126.243 285.839 126.728 285.5 127.085C285.16 127.443 284.7 127.644 284.22 127.646H247.959C243.947 123.731 240.656 119.071 238.25 113.9C238.092 113.567 237.941 113.231 237.798 112.89C235.606 107.886 234.279 102.511 233.88 97.0162C233.852 96.6778 233.83 96.342 233.815 96.0011C233.766 95.1292 233.744 94.2442 233.744 93.3567C233.736 87.449 234.796 81.5938 236.868 76.1028C236.991 75.7619 237.122 75.4235 237.258 75.0878C239.985 68.3409 244.178 62.3609 249.5 57.6283C249.816 57.3446 250.136 57.0687 250.459 56.8007L250.534 56.7381C254.698 53.2688 259.858 51.3895 265.169 51.4077H284.22C284.701 51.4093 285.162 51.6116 285.501 51.9702C285.84 52.3289 286.031 52.8146 286.03 53.3208Z" fill="#49FF92"/>
<path opacity="0.2" d="M286.127 76.1029V75.0878H269.955V51.4077H268.993V75.0878H250.459V56.8007C250.135 57.0687 249.815 57.3446 249.5 57.6284V75.0878H237.258C237.122 75.4235 236.991 75.7619 236.868 76.1029H249.5V96.0011H233.815C233.83 96.342 233.852 96.6778 233.88 97.0162H249.5V112.891H237.798C237.941 113.231 238.092 113.567 238.25 113.9H249.5V127.245H250.459V113.9H268.993V127.245H269.955V113.9H286.127V112.891H269.955C269.955 110.806 270.345 108.741 271.103 106.815C271.861 104.889 272.972 103.139 274.373 101.665C275.774 100.191 277.437 99.0213 279.267 98.2237C281.098 97.4261 283.06 97.0158 285.041 97.0162H286.127V96.0011H269.955V76.1029H286.127ZM268.993 112.891H250.459V97.0162H268.993V112.891ZM268.993 96.0011H250.459V95.6029C250.459 93.0419 250.939 90.5061 251.871 88.1401C252.802 85.7742 254.167 83.6245 255.888 81.8137C257.609 80.003 259.652 78.5667 261.901 77.5868C264.149 76.6069 266.559 76.1027 268.993 76.1029V96.0011Z" fill="black"/>
<path d="M284.303 113.146C283.915 113.165 283.531 113.058 283.204 112.839C282.876 112.621 282.619 112.302 282.47 111.925C282.32 111.548 282.284 111.132 282.367 110.733C282.449 110.334 282.646 109.971 282.931 109.694C282.979 109.494 283.013 109.351 283.061 109.151C283.044 109.108 283.027 109.065 283.009 109.021C281.267 104.649 270.147 116.838 269.666 120.947C269.455 122.763 269.544 124.605 269.93 126.389C266.328 118.121 264.458 109.135 264.446 100.04C264.445 97.7579 264.566 95.4773 264.807 93.2092C265.006 91.3498 265.283 89.5036 265.637 87.6707C267.567 77.7254 271.712 68.4039 277.731 60.4716C281.173 60.6737 284.19 60.1219 284.481 53.102C284.533 51.8533 285.413 50.7721 285.607 49.542C285.279 49.5873 284.945 49.6157 284.616 49.6383C284.514 49.644 284.406 49.6497 284.303 49.6554L284.265 49.6572C283.904 49.6742 283.545 49.5811 283.233 49.3889C282.921 49.1968 282.669 48.9138 282.506 48.5741C282.343 48.2344 282.277 47.8524 282.316 47.4742C282.355 47.096 282.497 46.7376 282.725 46.4422C282.866 46.2585 283.008 46.0748 283.151 45.8912C283.366 45.6078 283.587 45.33 283.802 45.0466C283.827 45.0197 283.851 44.9912 283.872 44.9615C284.12 44.6384 284.368 44.3209 284.616 43.9978C284.164 43.259 283.555 42.6402 282.838 42.1895C280.355 40.6589 276.928 41.719 275.134 44.0829C273.335 46.4468 272.996 49.7631 273.62 52.7165C274.235 55.2297 275.252 57.6144 276.627 59.7686C276.492 59.95 276.352 60.1257 276.217 60.3071C273.755 63.6384 271.609 67.2156 269.811 70.9874C270.319 66.8041 264.096 51.6969 261.689 48.497C258.798 44.6534 252.87 46.3308 252.361 51.2032C252.356 51.2504 252.351 51.2975 252.346 51.3447C252.704 51.5569 253.054 51.7821 253.396 52.0204C253.826 52.3228 254.16 52.7549 254.352 53.26C254.545 53.7651 254.588 54.3198 254.476 54.8512C254.365 55.3827 254.103 55.8662 253.725 56.2383C253.348 56.6105 252.872 56.854 252.361 56.937L252.309 56.9455C247.523 64.135 262.864 82.8474 266.703 78.6459C264.896 84.0353 263.762 89.6492 263.331 95.3463C263.087 98.7075 263.101 102.084 263.374 105.443L263.358 105.324C262.505 98.0083 247.868 87.1319 243.594 88.0379C241.132 88.5598 238.707 88.4411 239.081 91.0546C239.087 91.0963 239.093 91.138 239.099 91.1797C239.762 91.4641 240.408 91.7916 241.033 92.1604C241.391 92.3727 241.741 92.5979 242.083 92.8362C242.513 93.1386 242.846 93.5706 243.039 94.0758C243.232 94.5809 243.275 95.1355 243.163 95.667C243.051 96.1984 242.79 96.6819 242.412 97.0541C242.035 97.4263 241.559 97.6698 241.048 97.7528L240.995 97.7612C240.958 97.7669 240.925 97.7726 240.888 97.7783C238.709 105.665 254.863 118.392 264.683 114.343H264.688C265.662 118.793 267.072 123.124 268.896 127.268H283.926C283.98 127.092 284.029 126.91 284.077 126.735C282.686 126.827 281.289 126.739 279.918 126.474C281.033 125.034 282.148 123.583 283.264 122.143C283.289 122.116 283.312 122.088 283.334 122.058C283.899 121.321 284.47 120.59 285.036 119.853L285.036 119.852C285.067 117.593 284.82 115.339 284.303 113.146L284.303 113.146ZM267.091 77.5178L267.099 77.5065L267.091 77.5291V77.5178ZM263.762 109.099L263.633 108.793C263.638 108.572 263.638 108.351 263.633 108.124C263.633 108.062 263.622 107.999 263.622 107.937C263.67 108.328 263.713 108.719 263.767 109.11L263.762 109.099Z" fill="#2F2E41"/>
</g>
<defs>
<clipPath id="clip0_9:42">
<rect width="433" height="361" fill="white"/>
</clipPath>
</defs>
</svg>
