<svg width="34" height="70" viewBox="0 0 34 70" fill="none" xmlns="http://www.w3.org/2000/svg">
<path d="M26.13 15.168C25.22 15.22 24.544 15.363 24.102 15.597C23.66 15.805 23.361 16.169 23.205 16.689C23.049 17.183 22.971 17.924 22.971 18.912V42.195H22.074L5.694 16.884V37.476C5.694 38.49 5.772 39.244 5.928 39.738C6.11 40.232 6.448 40.596 6.942 40.83C7.436 41.038 8.203 41.168 9.243 41.22V42C8.307 41.922 6.981 41.883 5.265 41.883C3.705 41.883 2.496 41.922 1.638 42V41.22C2.548 41.168 3.224 41.038 3.666 40.83C4.108 40.596 4.407 40.232 4.563 39.738C4.719 39.218 4.797 38.464 4.797 37.476V18.522C4.797 17.534 4.719 16.819 4.563 16.377C4.407 15.935 4.108 15.636 3.666 15.48C3.25 15.324 2.574 15.22 1.638 15.168V14.388C2.496 14.466 3.705 14.505 5.265 14.505C6.435 14.505 7.449 14.466 8.307 14.388L22.074 35.604V18.912C22.074 17.898 21.983 17.144 21.801 16.65C21.645 16.156 21.32 15.805 20.826 15.597C20.332 15.363 19.565 15.22 18.525 15.168V14.388C19.461 14.466 20.787 14.505 22.503 14.505C24.063 14.505 25.272 14.466 26.13 14.388V15.168Z" fill="#1DC8E2"/>
<path d="M32.13 33.168C31.22 33.22 30.544 33.363 30.102 33.597C29.66 33.805 29.361 34.169 29.205 34.689C29.049 35.183 28.971 35.924 28.971 36.912V60.195H28.074L11.694 34.884V55.476C11.694 56.49 11.772 57.244 11.928 57.738C12.11 58.232 12.448 58.596 12.942 58.83C13.436 59.038 14.203 59.168 15.243 59.22V60C14.307 59.922 12.981 59.883 11.265 59.883C9.705 59.883 8.496 59.922 7.638 60V59.22C8.548 59.168 9.224 59.038 9.666 58.83C10.108 58.596 10.407 58.232 10.563 57.738C10.719 57.218 10.797 56.464 10.797 55.476V36.522C10.797 35.534 10.719 34.819 10.563 34.377C10.407 33.935 10.108 33.636 9.666 33.48C9.25 33.324 8.574 33.22 7.638 33.168V32.388C8.496 32.466 9.705 32.505 11.265 32.505C12.435 32.505 13.449 32.466 14.307 32.388L28.074 53.604V36.912C28.074 35.898 27.983 35.144 27.801 34.65C27.645 34.156 27.32 33.805 26.826 33.597C26.332 33.363 25.565 33.22 24.525 33.168V32.388C25.461 32.466 26.787 32.505 28.503 32.505C30.063 32.505 31.272 32.466 32.13 32.388V33.168Z" fill="#1DC8E2"/>
</svg>
