<?xml version="1.0" standalone="no"?>
<!DOCTYPE svg PUBLIC "-//W3C//DTD SVG 20010904//EN"
 "http://www.w3.org/TR/2001/REC-SVG-20010904/DTD/svg10.dtd">
<svg version="1.0" xmlns="http://www.w3.org/2000/svg"
 width="1120.000000pt" height="1120.000000pt" viewBox="0 0 1120.000000 1120.000000"
 preserveAspectRatio="xMidYMid meet">
<metadata>
Created by potrace 1.14, written by Peter Selinger 2001-2017
</metadata>
<g transform="translate(0.000000,1120.000000) scale(0.100000,-0.100000)"
fill="#000000" stroke="none">
<path d="M3142 8838 l3 -62 110 -13 c258 -28 325 -72 372 -245 16 -58 17 -197
21 -1708 3 -1715 1 -1836 -38 -1964 -23 -73 -81 -146 -141 -177 -49 -25 -151
-48 -248 -57 l-76 -7 -3 -63 -3 -63 93 8 c120 10 914 10 1036 0 l93 -8 -3 63
-3 63 -90 7 c-290 24 -411 103 -456 299 -10 42 -13 448 -16 1818 -2 971 -1
1762 3 1758 4 -4 593 -912 1309 -2019 l1303 -2013 73 0 74 0 5 1990 c6 2112 4
2017 48 2127 18 44 82 108 136 135 55 28 206 63 274 63 l42 0 0 65 0 65 -47
-7 c-55 -8 -878 -11 -1053 -3 l-115 5 0 -60 0 -59 105 -12 c238 -26 357 -85
406 -199 50 -118 48 -45 51 -1604 2 -800 2 -1453 0 -1450 -2 2 -498 766 -1102
1696 l-1097 1693 -57 -8 c-74 -9 -879 -9 -954 1 l-58 7 3 -62z"/>
<path d="M4100 5955 l0 -65 43 0 c62 0 225 -27 280 -46 109 -37 159 -127 177
-311 14 -146 14 -3238 0 -3388 -14 -150 -39 -230 -91 -289 -23 -26 -59 -56
-80 -67 -49 -25 -151 -48 -248 -57 l-76 -7 -3 -63 -3 -63 78 8 c102 10 942 10
1056 0 l88 -8 -3 63 -3 63 -90 7 c-235 19 -366 80 -421 197 -49 103 -48 32
-51 1920 -2 971 -1 1762 3 1758 4 -4 593 -912 1309 -2019 l1303 -2013 73 0 74
0 5 1995 c6 2125 3 2008 48 2122 18 44 82 108 136 135 55 28 206 63 274 63
l42 0 0 65 0 65 -47 -7 c-55 -8 -878 -11 -1053 -3 l-115 5 0 -60 0 -59 115
-13 c230 -26 348 -85 396 -198 50 -118 48 -46 51 -1600 3 -1230 1 -1448 -10
-1435 -8 8 -503 770 -1102 1692 l-1087 1678 -57 -8 c-74 -9 -879 -9 -953 1
l-58 7 0 -65z"/>
</g>
</svg>
